# xmcd
#
# Track frame offsets:
#	150
#	14287
#	27462
#	51083
#	67417
#	81046
#	95216
#	108600
#	120700
#	134224
#	151255
#	164179
#	180047
#	198862
#	220020
#	237633
#	252013
#	272228
#	283918
#	297618
#	315283
#
# Disc length: 4335 seconds
#
# Revision: 1
# Processed by: cddbd v1.5.1PL2 Copyright (c) Steve Scherf et al.
# Submitted via: audiograbber 1.83.01
#
DISCID=4710ed15
DTITLE=Emmy Lou Harris - The very best of...
DYEAR=1900
DGENRE=Country
TTITLE0=Satans Jewel Crown
TTITLE1=One of these Days
TTITLE2=Till i gain control again
TTITLE3=Here there and Everywhere
TTITLE4=Jambalaya
TTITLE5=Wheels
TTITLE6=Easy from now on
TTITLE7=To Daddy
TTITLE8=My Songbird
TTITLE9=Defying Grafity
TTITLE10=One Paper Kid
TTITLE11=Green Rolling Hills of Westvirginia
TTITLE12=Burn That Candle
TTITLE13=Pancho and Lefty
TTITLE14=Hello Stranger
TTITLE15=She
TTITLE16=Tulsa Queen
TTITLE17=Bad Moon Rising
TTITLE18=Evangeline
TTITLE19=Millworker
TTITLE20=Mister Sandman
EXTD=
EXTT0=
EXTT1=
EXTT2=
EXTT3=
EXTT4=
EXTT5=
EXTT6=
EXTT7=
EXTT8=
EXTT9=
EXTT10=
EXTT11=
EXTT12=
EXTT13=
EXTT14=
EXTT15=
EXTT16=
EXTT17=
EXTT18=
EXTT19=
EXTT20=
PLAYORDER=
